HIERARCHY
ROOT Hips
{
	OFFSET 0.000000 0.000000 0.000000 
	CHANNELS 6 Xposition Yposition Zposition Yrotation Zrotation Xrotation 
	JOINT Lumbar
	{
		OFFSET 0.000000 0.000000 0.000000 
		CHANNELS 3 Zrotation Xrotation Yrotation
		JOINT Neck
		{
			OFFSET 0.000000 0.445665 0.000000 
			CHANNELS 3 Zrotation Xrotation Yrotation
			End Site
			{
				OFFSET 0.000000 0.227535 0.000000 
			}
		}
		JOINT RightShoulder
		{
			OFFSET 0.019635 0.377685 0.194865 
			CHANNELS 3 Zrotation Xrotation Yrotation
			JOINT RightElbow
			{
				OFFSET 0.000000 -0.243375 0.000000 
				CHANNELS 2 Zrotation Yrotation
				JOINT RightWrist
				{
					OFFSET 0.000000 -0.264825 0.000000 
					CHANNELS 2 Zrotation Xrotation
					End Site
					{
						OFFSET 0.006600 -0.176220 0.000990 
					}
				}
			}
		}
		JOINT LeftShoulder
		{
			OFFSET 0.019635 0.377685 -0.194865 
			CHANNELS 3 Zrotation Xrotation Yrotation
			JOINT LeftElbow
			{
				OFFSET 0.000000 -0.243375 0.000000 
				CHANNELS 2 Zrotation Yrotation
				JOINT LeftWrist
				{
					OFFSET 0.000000 -0.264825 0.000000 
					CHANNELS 2 Zrotation Xrotation
					End Site
					{
						OFFSET 0.006600 -0.176220 -0.000990 
					}
				}
			}
		}
	}
	JOINT RightHip
	{
		OFFSET 0.052140 -0.069960 0.075570 
		CHANNELS 3 Zrotation Xrotation Yrotation
		JOINT RightKnee
		{
			OFFSET 0.000000 -0.402270 0.000000 
			CHANNELS 1 Zrotation
			JOINT RightAnkle
			{
				OFFSET 0.000000 -0.404085 0.000000 
				CHANNELS 3 Zrotation Xrotation Yrotation
				End Site
				{
					OFFSET 0.204105 -0.089430 0.008415 
				}
			}
		}
	}
	JOINT LeftHip
	{
		OFFSET 0.052140 -0.069960 -0.075570 
		CHANNELS 3 Zrotation Xrotation Yrotation
		JOINT LeftKnee
		{
			OFFSET 0.000000 -0.402270 0.000000 
			CHANNELS 1 Zrotation
			JOINT LeftAnkle
			{
				OFFSET 0.000000 -0.404085 0.000000 
				CHANNELS 3 Zrotation Xrotation Yrotation
				End Site
				{
					OFFSET 0.204105 -0.089430 -0.008415 
				}
			}
		}
	}
}
MOTION
Frames: 32
Frame Time: 0.02
0 0.95578 0 180.04552 0 -4.40502 5.18433 4.74585 0.91197 -29.13658 0.54992 0.99661 24.05983 -63.11881 -65.56033 52.3262 96.63346 -75.65691 -5.69872 34.55989 60.89751 53.40415 56.77002 -94.18554 -72.41101 4.87529 1.14525 6.63485 -5.04927 -10.28823 2.92493 -5.66895 -11.52003 0.32117 3.58102 0.67295 -5.50693 5.51072 6.05738 9.42566
-0.0006 0.9558 -0.00013 180.15031 0 -4.39516 5.23786 4.7433 0.85369 -29.16922 0.56021 0.94197 23.59145 -62.89923 -65.79947 54.85905 96.25416 -76.15133 -6.00499 34.17907 60.92827 53.65678 58.54073 -94.00762 -73.50819 5.22645 1.09658 6.63834 -5.10534 -10.28091 2.91405 -5.67537 -11.57094 0.30477 3.57744 0.57609 -5.51876 5.51913 6.06994 9.42304
-0.00119 0.95581 -0.00027 180.25434 0 -4.38535 5.29136 4.74074 0.79593 -29.20217 0.57066 0.88819 23.12558 -62.68222 -66.03674 57.37957 95.86299 -76.64338 -6.32373 33.80097 60.95789 53.90669 60.30444 -93.82903 -74.59756 5.57893 1.0481 6.64184 -5.16093 -10.27365 2.90336 -5.68179 -11.62149 0.2884 3.57391 0.47978 -5.53064 5.52758 6.08244 9.42058
-0.00179 0.95582 -0.0004 180.35609 0 -4.3757 5.34525 4.73816 0.73982 -29.23695 0.58184 0.83751 22.66377 -62.47353 -66.27063 59.87435 95.41101 -77.13151 -6.70512 33.42958 60.98223 54.15012 62.05905 -93.65652 -75.66495 5.92828 0.99986 6.64543 -5.21513 -10.26635 2.89321 -5.68816 -11.67096 0.27183 3.57055 0.38499 -5.54258 5.5362 6.09479 9.41876
-0.00239 0.95584 -0.00053 180.4696 0 -4.36526 5.39707 4.73575 0.67513 -29.26241 0.58914 0.77065 22.17874 -62.22096 -66.52453 62.50413 95.26958 -77.64128 -6.76638 33.02208 61.03335 54.43018 63.86382 -93.46418 -76.84706 6.2803 0.95031 6.64857 -5.27668 -10.25899 2.88003 -5.6947 -11.72598 0.25614 3.5663 0.28245 -5.55391 5.54381 6.10787 9.41358
-0.00298 0.95585 -0.00067 180.55836 0 -4.35646 5.45321 4.73294 0.62854 -29.30732 0.60462 0.73788 21.74447 -62.06131 -66.73442 64.84667 94.47935 -78.10419 -7.49665 32.69174 61.02857 54.63095 65.55933 -93.3056 -77.78652 6.63569 0.90362 6.65267 -5.32263 -10.25197 2.87339 -5.70093 -11.76935 0.23872 3.56395 0.1962 -5.56671 5.55361 6.11945 9.41551
-0.00355 0.95586 -0.00081 180.57666 0 -4.35239 5.52326 4.72934 0.63358 -29.41093 0.64422 0.80356 21.43343 -62.16438 -66.83619 66.42435 91.74098 -78.4508 -10.23231 32.56985 60.85659 54.62326 67.00093 -93.31583 -78.04671 6.92526 0.8633 6.65957 -5.32528 -10.24389 2.88441 -5.70578 -11.77921 0.21499 3.5669 0.15577 -5.58233 5.56952 6.12665 9.438
-0.00411 0.95587 -0.00097 180.57037 0 -4.34993 5.59734 4.72528 0.65658 -29.53329 0.69187 0.90297 21.17623 -62.36016 -66.8912 67.70853 88.3726 -78.74813 -13.61804 32.52653 60.63009 54.5337 68.32495 -93.3503 -78.06343 7.22796 0.8261 6.66744 -5.3123 -10.23648 2.90211 -5.7104 -11.77751 0.18978 3.57176 0.13157 -5.59964 5.58764 6.13238 9.46755
-0.00467 0.95588 -0.00112 180.57674 0 -4.34659 5.66839 4.72122 0.6703 -29.64406 0.73483 0.98421 20.90526 -62.50981 -66.95894 69.11058 85.3916 -79.05988 -16.60634 32.45016 60.43698 54.47461 69.67354 -93.31928 -78.19844 7.57954 0.78842 6.67482 -5.30655 -10.23008 2.91701 -5.71547 -11.78205 0.16625 3.57575 0.0994 -5.61704 5.60471 6.13893 9.49326
-0.00526 0.95589 -0.00126 180.57689 0 -4.34385 5.74458 4.71802 0.68877 -29.76811 0.78197 1.07731 20.58993 -62.6767 -67.06249 70.57809 81.9873 -79.40509 -20.02214 32.36275 60.2086 54.44348 71.14404 -93.50145 -78.30314 7.71769 0.7468 6.68243 -5.30002 -10.21823 2.93092 -5.71912 -11.78266 0.13851 3.57979 0.06987 -5.63094 5.62198 6.14483 9.52152
-0.00578 0.9559 -0.00142 180.58412 0 -4.34026 5.81088 4.71294 0.7016 -29.86854 0.82252 1.15389 20.37886 -62.82921 -67.08052 71.83924 79.31134 -79.66907 -22.7053 32.31681 60.03939 54.33524 72.33232 -93.26634 -78.41062 8.2808 0.71408 6.68976 -5.2917 -10.21776 2.9485 -5.72561 -11.78843 0.11913 3.58415 0.03853 -5.65237 5.63934 6.15173 9.54629
-0.00614 0.95589 -0.00163 180.6171 0 -4.33396 5.85029 4.70261 0.69453 -29.90285 0.84132 1.17518 20.45041 -62.9237 -66.872 72.60542 78.832 -79.71966 -23.17804 32.36767 60.05858 54.02889 72.77364 -91.69028 -78.60754 10.21293 0.7056 6.69635 -5.27956 -10.24975 2.9744 -5.74064 -11.81375 0.12364 3.58918 -0.00042 -5.69557 5.65669 6.16186 9.55822
-0.00645 0.95587 -0.00185 180.65798 0 -4.32675 5.87934 4.69044 0.68115 -29.9121 0.85349 1.17895 20.62362 -62.99978 -66.57916 73.17317 79.10207 -79.6904 -22.89602 32.45724 60.13721 53.6486 72.93403 -89.72556 -78.81175 12.53805 0.70588 6.70257 -5.26661 -10.29293 3.00378 -5.75842 -11.84424 0.13651 3.59443 -0.04191 -5.74601 5.67401 6.17303 9.56659
-0.00678 0.95586 -0.00207 180.69516 0 -4.31993 5.91222 4.67921 0.67062 -29.93036 0.86977 1.1917 20.74506 -63.08127 -66.32641 73.83028 79.0077 -79.69855 -22.97867 32.52814 60.1807 53.30573 73.22118 -88.0612 -78.99779 14.54925 0.70189 6.70875 -5.25588 -10.33024 3.03173 -5.77452 -11.87072 0.14528 3.59941 -0.08324 -5.79225 5.69117 6.1837 9.57761
-0.00711 0.95585 -0.00229 180.73209 0 -4.31326 5.94894 4.66748 0.66079 -29.95914 0.8818 1.20139 20.89167 -63.17808 -66.06542 74.48207 78.98968 -79.70046 -22.99407 32.60647 60.25578 52.94443 73.50951 -85.88357 -79.23715 17.12039 0.69925 6.71582 -5.23704 -10.37097 3.05935 -5.79242 -11.90367 0.15533 3.60513 -0.12018 -5.8425 5.70916 6.19448 9.58479
-0.00742 0.95583 -0.0025 180.77157 0 -4.30606 5.97517 4.65642 0.64778 -29.96003 0.90088 1.21277 21.00955 -63.23792 -65.80112 75.09977 79.00187 -79.69678 -22.95989 32.67735 60.28093 52.60434 73.72839 -84.67202 -79.37152 18.63327 0.69582 6.72097 -5.23476 -10.40714 3.08829 -5.80726 -11.92469 0.16463 3.60938 -0.16663 -5.88597 5.72538 6.20522 9.59868
-0.00763 0.95579 -0.0027 180.81765 0 -4.2975 5.97484 4.6473 0.62738 -29.88798 0.94215 1.23361 21.02076 -63.19548 -65.55781 75.68862 78.8958 -79.69915 -22.98262 32.71889 60.14489 52.34729 73.84043 -86.31387 -79.2052 16.99886 0.68831 6.72067 -5.2814 -10.42858 3.12078 -5.81267 -11.91002 0.17076 3.60918 -0.24253 -5.9102 5.73677 6.21625 9.63482
-0.00781 0.95574 -0.00289 180.86584 0 -4.28847 5.96431 4.63901 0.60396 -29.78899 0.99051 1.25648 20.9996 -63.11708 -65.31279 76.24802 78.80402 -79.69824 -22.97365 32.75099 59.9585 52.11335 73.89009 -88.92499 -78.93587 14.30941 0.67964 6.7185 -5.34426 -10.4449 3.15426 -5.81494 -11.88349 0.1757 3.60756 -0.32719 -5.92718 5.74638 6.22709 9.67721
-0.008 0.9557 -0.00308 180.91222 0 -4.27974 5.95851 4.6306 0.58192 -29.70359 1.03489 1.27788 20.99479 -63.05751 -65.06226 76.8118 78.71687 -79.69821 -22.97352 32.78661 59.80111 51.86512 73.95793 -91.03202 -78.72087 12.18804 0.67136 6.71735 -5.39776 -10.46318 3.18675 -5.81885 -11.86344 0.18054 3.60681 -0.40552 -5.94659 5.75671 6.23761 9.7149
-0.00819 0.95566 -0.00328 180.96251 0 -4.27061 5.95195 4.62102 0.55956 -29.61169 1.08223 1.30097 20.98724 -62.98606 -64.8343 77.4078 78.59552 -79.69921 -22.98269 32.82715 59.61972 51.63035 74.05777 -93.3914 -78.4743 9.70818 0.66399 6.71543 -5.45951 -10.48348 3.22174 -5.822 -11.83901 0.18826 3.60511 -0.4942 -5.96968 5.76731 6.24987 9.76055
-0.00839 0.95562 -0.00347 181.00497 0 -4.26224 5.94468 4.61412 0.53731 -29.52718 1.12517 1.32127 20.97564 -62.93205 -64.56128 77.93066 78.55539 -79.69673 -22.96002 32.85436 59.47586 51.37386 74.08113 -95.46368 -78.26885 7.71695 0.6543 6.7147 -5.50809 -10.49808 3.25158 -5.8259 -11.82076 0.18974 3.60505 -0.56291 -5.98358 5.77704 6.25847 9.79088
-0.0086 0.9556 -0.00363 181.02614 0 -4.2558 5.93794 4.61423 0.51527 -29.47059 1.15434 1.33321 20.96662 -62.92597 -64.15368 78.27429 78.58619 -79.70041 -22.99365 32.8494 59.44538 51.05386 73.89936 -96.47851 -78.20348 7.35225 0.63884 6.71749 -5.51506 -10.49945 3.2681 -5.83304 -11.82309 0.17296 3.60965 -0.57845 -5.97127 5.78382 6.25675 9.77968
-0.00882 0.95558 -0.00379 181.03916 0 -4.2502 5.93087 4.61704 0.49362 -29.42232 1.17882 1.34237 20.95318 -62.94018 -63.70307 78.54355 78.71689 -79.69896 -22.98024 32.8307 59.45441 50.71144 73.64626 -97.17717 -78.18285 7.51045 0.62098 6.72156 -5.50843 -10.49502 3.27922 -5.84094 -11.8319 0.1501 3.61595 -0.57295 -5.9503 5.78993 6.25138 9.75257
-0.00904 0.95556 -0.00395 181.05534 0 -4.24441 5.924 4.61878 0.47235 -29.36981 1.20543 1.35299 20.93723 -62.95143 -63.27962 78.83758 78.90352 -79.68962 -22.89541 32.81653 59.44702 50.37791 73.43288 -98.0417 -78.14075 7.41434 0.60392 6.7252 -5.50891 -10.49235 3.29204 -5.84819 -11.8373 0.13092 3.62163 -0.57419 -5.93508 5.79708 6.24783 9.73109
-0.00925 0.95554 -0.00412 181.07392 0 -4.23782 5.91657 4.61998 0.44862 -29.31837 1.23239 1.3629 20.93868 -62.93606 -62.82436 79.16818 78.68635 -79.72058 -23.17748 32.80927 59.43224 50.0495 73.18496 -98.84971 -78.09956 7.35084 0.588 6.72819 -5.50617 -10.49305 3.30797 -5.85665 -11.84425 0.10806 3.62671 -0.58703 -5.91237 5.80128 6.24362 9.71603
-0.00947 0.95553 -0.00427 181.08548 0 -4.23306 5.91032 4.62283 0.43013 -29.26691 1.25731 1.37353 20.90403 -62.98007 -62.42464 79.40585 79.3048 -79.6698 -22.71389 32.7845 59.44186 49.70624 72.99459 -99.6833 -78.06885 7.35884 0.56924 6.7328 -5.50651 -10.48561 3.31626 -5.86279 -11.84967 0.09116 3.63336 -0.57135 -5.9028 5.81123 6.23989 9.68443
-0.00969 0.95553 -0.00438 181.08022 0 -4.23374 5.9079 4.63037 0.42613 -29.2147 1.27853 1.38731 20.76375 -63.19446 -62.19383 79.40227 82.45686 -79.3655 -19.94983 32.71405 59.51838 49.31488 72.96708 -100.69778 -78.05324 7.43034 0.5423 6.74222 -5.52024 -10.45542 3.30368 -5.86259 -11.84913 0.09439 3.64488 -0.47549 -5.93597 5.83951 6.23875 9.60499
-0.0099 0.95553 -0.00447 181.06805 0 -4.23616 5.90663 4.63934 0.42739 -29.16207 1.29765 1.40176 20.58849 -63.46561 -62.01965 79.30918 86.40216 -78.98423 -16.48199 32.62629 59.61673 48.91135 73.00296 -101.73699 -78.04783 7.56387 0.51273 6.75311 -5.53721 -10.41753 3.2838 -5.86002 -11.84687 0.10343 3.65779 -0.35277 -5.98195 5.8732 6.23819 9.51052
-0.01012 0.95553 -0.00458 181.05866 0 -4.2374 5.90461 4.64707 0.42615 -29.10893 1.31725 1.41562 20.43438 -63.70396 -61.81607 79.25817 89.81631 -78.65771 -13.50561 32.54737 59.6992 48.52182 73.01887 -102.73967 -78.03998 7.67602 0.48499 6.7629 -5.5515 -10.38434 3.26801 -5.85841 -11.84561 0.10832 3.66945 -0.24666 -6.01921 5.90287 6.23713 9.42693
-0.01034 0.95553 -0.00468 181.05052 0 -4.24026 5.9036 4.65729 0.42536 -29.05908 1.33886 1.43078 20.2591 -63.97402 -61.62578 79.19559 93.94335 -78.24893 -9.81307 32.46521 59.80781 48.09674 72.99439 -103.84264 -78.02378 7.76992 0.45458 6.77455 -5.57019 -10.34601 3.24885 -5.85727 -11.84383 0.11926 3.68368 -0.12144 -6.0682 5.93898 6.23688 9.32584
-0.01055 0.95553 -0.00478 181.03824 0 -4.2402 5.90069 4.66274 0.42491 -29.00212 1.35564 1.4432 20.11818 -64.18942 -61.42265 79.14063 96.78653 -77.99157 -7.43301 32.38419 59.86713 47.74189 73.07071 -104.74168 -78.02754 7.91877 0.42905 6.78269 -5.58094 -10.31646 3.23496 -5.85463 -11.84241 0.1192 3.69296 -0.02967 -6.09616 5.96311 6.23522 9.25763
-0.01075 0.95552 -0.00488 181.01613 0 -4.23109 5.89281 4.65375 0.4239 -28.92597 1.36122 1.44976 20.09325 -64.25576 -61.16277 79.09791 95.76988 -78.18593 -8.95865 32.32475 59.78045 47.5942 73.40678 -105.11558 -78.0774 8.12474 0.41842 6.78028 -5.56661 -10.31466 3.23807 -5.84816 -11.84429 0.08615 3.68756 -0.03917 -6.06076 5.95168 6.22866 9.28571
